<svg width="103" height="32" viewBox="0 0 103 32" fill="none" xmlns="http://www.w3.org/2000/svg">
<g clip-path="url(#clip0_18_1368)">
<path d="M1.54193 22.424C2.70056 22.424 3.76256 22.2427 4.72818 21.8804L-0.413256 16.1572H5.16268L8.24034 19.5983C9.01284 18.7773 9.60418 17.8354 10.0145 16.7729C10.4491 15.6863 10.6663 14.527 10.6663 13.2955C10.6663 11.605 10.2681 10.0594 9.47153 8.65876C8.67484 7.25815 7.57656 6.15926 6.17644 5.36245C4.77656 4.56552 3.23168 4.16694 1.54193 4.16694C-0.147817 4.16694 -1.69269 4.56552 -3.09269 5.36245C-4.46863 6.15926 -5.56691 7.25815 -6.38766 8.65876C-7.18423 10.0594 -7.58247 11.605 -7.58247 13.2955C-7.58247 14.9858 -7.18423 16.5314 -6.38766 17.932C-5.56693 19.3327 -4.46863 20.4315 -3.09269 21.2285C-1.69269 22.0254 -0.147695 22.424 1.54193 22.424V22.424ZM9.54384 27.2779L7.66109 25.1768C5.72997 26.1186 3.69024 26.5896 1.54193 26.5896C-0.920193 26.5896 -3.18919 25.998 -5.26519 24.8145C-7.34107 23.6312 -8.98257 22.0254 -10.1894 19.9968C-11.3964 17.9683 -11.9999 15.7345 -11.9999 13.2955C-11.9999 10.8563 -11.3964 8.62261 -10.1894 6.594C-8.98255 4.56552 -7.34107 2.95957 -5.26519 1.77627C-3.18919 0.59297 -0.920193 0.00125885 1.54193 0.00125885C4.00406 0.00125885 6.27306 0.59297 8.34906 1.77627C10.4249 2.95957 12.0663 4.56552 13.2733 6.594C14.4802 8.62261 15.0836 10.8563 15.0836 13.2955C15.0836 15.1308 14.7337 16.8696 14.0337 18.5117C13.3337 20.1296 12.344 21.5424 11.0646 22.7498L15.1199 27.2779H9.54384Z" fill="#CFCFCF"/>
<path d="M26.1974 22.5687C27.1871 22.5687 28.0922 22.3272 28.913 21.8442C29.7337 21.3612 30.3855 20.7091 30.8683 19.8881C31.3512 19.043 31.5924 18.1131 31.5924 17.0989C31.5924 16.0846 31.3512 15.1669 30.8683 14.3459C30.3855 13.5006 29.7337 12.8366 28.913 12.3535C28.0922 11.8706 27.1871 11.629 26.1974 11.629C25.2077 11.629 24.3027 11.8706 23.4819 12.3535C22.6612 12.8366 22.0095 13.5006 21.5266 14.3459C21.0438 15.1669 20.8025 16.0846 20.8025 17.0989C20.8025 18.1131 21.0438 19.043 21.5266 19.8881C22.0095 20.7091 22.6612 21.3612 23.4819 21.8442C24.3027 22.3272 25.2077 22.5687 26.1974 22.5687ZM35.5391 8.26082V25.9743H31.5924V24.1993C30.796 24.948 29.9027 25.5276 28.913 25.9381C27.9475 26.3244 26.9216 26.5176 25.8354 26.5176C24.1699 26.5176 22.625 26.0951 21.2008 25.2498C19.7766 24.4045 18.6421 23.2694 17.7973 21.8447C16.9765 20.3958 16.5661 18.814 16.5661 17.0994C16.5661 15.409 16.9765 13.8513 17.7973 12.4266C18.6421 10.9776 19.7766 9.83046 21.2008 8.98528C22.625 8.13998 24.1699 7.71745 25.8354 7.71745C26.9216 7.71745 27.9475 7.92267 28.913 8.33323C29.9027 8.7196 30.796 9.28712 31.5924 10.0358V8.26079H35.5391" fill="#CFCFCF"/>
<path d="M47.7282 22.5686C48.718 22.5686 49.6231 22.3271 50.4439 21.8441C51.2645 21.3612 51.9163 20.7091 52.3991 19.8881C52.8818 19.0429 53.1232 18.1131 53.1232 17.0989C53.1232 16.0846 52.8818 15.1669 52.3991 14.3459C51.9163 13.5006 51.2645 12.8366 50.4439 12.3534C49.6231 11.8706 48.718 11.6289 47.7282 11.6289C46.7386 11.6289 45.8333 11.8706 45.0126 12.3534C44.1918 12.8366 43.5402 13.5006 43.0574 14.3459C42.5746 15.1669 42.3333 16.0846 42.3333 17.0989C42.3333 18.1131 42.5746 19.0429 43.0574 19.8881C43.5402 20.7091 44.1918 21.3612 45.0126 21.8441C45.8333 22.3271 46.7386 22.5686 47.7282 22.5686ZM48.0903 7.71721C49.7559 7.71721 51.3008 8.13974 52.7248 8.98504C54.1492 9.83022 55.2716 10.9774 56.0924 12.4263C56.9372 13.851 57.3596 15.4087 57.3596 17.0992C57.3596 18.8138 56.9372 20.3955 56.0924 21.8445C55.2716 23.2692 54.1492 24.4042 52.7248 25.2495C51.3008 26.0948 49.7559 26.5174 48.0903 26.5174C47.0765 26.5174 46.0989 26.3363 45.1574 25.974C44.2161 25.6117 43.3713 25.1047 42.6229 24.4526V32.4943H38.3867V8.2603H42.3333V10.0353C43.1298 9.28663 44.0109 8.71911 44.9764 8.33274C45.9661 7.92218 47.004 7.71697 48.0903 7.71697" fill="#CFCFCF"/>
<path d="M61.9529 5.21712C61.2289 5.21712 60.6012 4.97563 60.0702 4.49263C59.5634 3.98557 59.3098 3.3698 59.3098 2.64531C59.3098 1.92081 59.5634 1.31701 60.0702 0.834013C60.6012 0.326954 61.2289 0.0733643 61.9529 0.0733643C62.6772 0.0733643 63.2927 0.326954 63.7995 0.834013C64.3307 1.31701 64.5961 1.92081 64.5961 2.64531C64.5961 3.3698 64.3307 3.98557 63.7995 4.49263C63.2927 4.97563 62.6772 5.21712 61.9529 5.21712ZM59.8167 8.25997H64.0531V25.9734H59.8167V8.25997Z" fill="#CFCFCF"/>
<path d="M71.1327 12.0639V19.8158C71.1327 20.5645 71.3257 21.1318 71.7119 21.5182C72.1222 21.9047 72.7016 22.0978 73.4499 22.0978H75.4051V25.9738H73.3413C72.062 25.9738 70.9395 25.7202 69.9739 25.2131C69.0084 24.6817 68.2601 23.9695 67.7291 23.0758C67.1981 22.1583 66.9325 21.1318 66.9325 19.9968V0.653782H71.1327V8.26077H75.4051V12.0644H71.1327" fill="#CFCFCF"/>
<path d="M85.8608 22.5687C86.8505 22.5687 87.7556 22.3272 88.5764 21.8442C89.397 21.3612 90.0487 20.7091 90.5316 19.8881C91.0144 19.043 91.2557 18.1131 91.2557 17.0989C91.2557 16.0846 91.0144 15.1669 90.5316 14.3459C90.0487 13.5006 89.397 12.8366 88.5764 12.3535C87.7556 11.8706 86.8505 11.629 85.8608 11.629C84.8711 11.629 83.9658 11.8706 83.1452 12.3535C82.3245 12.8366 81.6726 13.5006 81.1899 14.3459C80.7071 15.1669 80.4658 16.0846 80.4658 17.0989C80.4658 18.1131 80.7071 19.043 81.1899 19.8881C81.6726 20.7091 82.3245 21.3612 83.1452 21.8442C83.9658 22.3272 84.8711 22.5687 85.8608 22.5687ZM95.2024 8.26082V25.9743H91.2557V24.1993C90.4593 24.948 89.566 25.5276 88.5764 25.9381C87.6108 26.3244 86.5849 26.5176 85.4986 26.5176C83.833 26.5176 82.2883 26.0951 80.8641 25.2498C79.4399 24.4045 78.3054 23.2694 77.4606 21.8447C76.6398 20.3958 76.2294 18.814 76.2294 17.0994C76.2294 15.409 76.6398 13.8513 77.4606 12.4266C78.3054 10.9776 79.4399 9.83046 80.8641 8.98528C82.2883 8.13998 83.833 7.71745 85.4986 7.71745C86.5849 7.71745 87.6108 7.92267 88.5764 8.33323C89.566 8.7196 90.4593 9.28712 91.2557 10.0358V8.26079H95.2024" fill="#CFCFCF"/>
<path d="M98.0481 0.65103H102.284V25.9734H98.0481V0.65103Z" fill="#CFCFCF"/>
</g>
<defs>
<clipPath id="clip0_18_1368">
<rect width="114.293" height="32.4939" fill="white" transform="translate(-12)"/>
</clipPath>
</defs>
</svg>
