<svg width="99" height="32" viewBox="0 0 99 32" fill="none" xmlns="http://www.w3.org/2000/svg">
<path d="M10.2635 8.3869V0H1.87666L10.2635 8.3869Z" fill="#CFCFCF"/>
<path d="M10.8855 21.4546L20.6009 11.7024H11.5921L1.87666 21.4546H10.8855Z" fill="#CFCFCF"/>
<path d="M21.9662 0H12.214V9.75217H21.9662V0Z" fill="#CFCFCF"/>
<path d="M21.9663 21.455V13.0681L13.5793 21.455H21.9663Z" fill="#CFCFCF"/>
<path d="M0.511353 1.36573V20.09L9.87345 10.7279L0.511353 1.36573Z" fill="#CFCFCF"/>
<path d="M39.9103 7.79629C39.9103 7.79629 39.6837 7.76649 39.3922 7.76649C36.0573 7.76649 35.0211 9.49511 35.0211 13.0121V18.1384H31.7185V5.06767H34.9563V6.4849C36.0573 5.26288 37.3848 4.87545 39.2627 4.87545C39.3599 4.87545 39.5542 4.87545 39.9103 4.90525V7.79629Z" fill="#CFCFCF"/>
<path d="M44.6968 10.2413H50.4603C50.4298 9.10846 49.7516 7.6776 47.6557 7.6776C45.868 7.6776 44.9434 8.98926 44.6968 10.2413ZM44.5119 12.6559C44.666 14.6234 46.0529 15.8158 48.0564 15.8158C49.6591 15.8158 50.7686 15.0705 51.5393 13.9676L53.6659 15.8754C52.4948 17.3063 50.8302 18.5285 48.0564 18.5285C44.0188 18.5285 41.2756 15.7562 41.2756 11.7914C41.2756 8.0055 43.6797 4.87545 47.594 4.87545C51.9398 4.87545 53.7585 8.2738 53.7585 11.5529C53.7585 12.0001 53.7275 12.6261 53.7275 12.6261H44.5119V12.6559Z" fill="#CFCFCF"/>
<path d="M65.0985 18.1384V10.3993C65.0985 8.71556 64.1806 7.59304 62.5667 7.59304C60.6991 7.59304 59.7176 8.86321 59.7176 10.7537L59.7073 18.1384H56.4889V5.07047H59.6546V6.32287C60.2875 5.64348 61.4585 4.87545 63.2631 4.87545C65.1621 4.87545 66.3962 5.61393 67.1246 6.55916C68.2643 5.37758 69.6886 4.87545 71.461 4.87545C75.1645 4.87545 76.9685 6.94316 76.9685 10.6059V18.1384H73.7402V10.3993C73.7402 8.71556 72.8223 7.59304 71.2079 7.59304C69.3404 7.59304 68.3273 8.86321 68.3273 10.7537V18.1384H65.0985Z" fill="#CFCFCF"/>
<path d="M80.2844 18.1392V5.07127H83.4054V18.1392H80.2844Z" fill="#CFCFCF"/>
<path d="M80.2844 3.12071V0H83.4054V3.12071H80.2844Z" fill="#CFCFCF"/>
<path d="M89.911 5.07127L92.474 8.9797L95.038 5.07127H98.6962L94.2564 11.4262L99.009 18.1392H95.3507L92.474 13.8728L89.6299 18.1392H85.9406L90.7233 11.4262L86.2536 5.07127H89.911Z" fill="#CFCFCF"/>
<path d="M66.0461 24.1547V26.7685H66.0692C66.1155 26.7065 66.1751 26.6419 66.2474 26.5746C66.3198 26.5074 66.405 26.4454 66.5036 26.3885C66.607 26.3316 66.7257 26.2851 66.8601 26.2489C66.9946 26.2075 67.1472 26.1869 67.3182 26.1869C67.5816 26.1869 67.8249 26.2385 68.047 26.342C68.2696 26.4402 68.4607 26.5772 68.6213 26.753C68.7813 26.9289 68.9055 27.1357 68.9935 27.3735C69.0812 27.6114 69.1251 27.8674 69.1251 28.1414C69.1251 28.4156 69.0812 28.6741 68.9935 28.9171C68.9109 29.1549 68.7892 29.3644 68.6287 29.5454C68.4735 29.7212 68.2825 29.8634 68.0549 29.972C67.8323 30.0754 67.5792 30.1271 67.2945 30.1271C67.031 30.1271 66.7828 30.0702 66.5498 29.9565C66.3223 29.8427 66.144 29.6772 66.015 29.4601H65.9993V30.0185H65.1153V24.1547H66.0461ZM68.179 28.1414C68.179 27.9967 68.1559 27.8544 68.1091 27.7149C68.0677 27.57 68.0032 27.4408 67.915 27.327C67.8274 27.2133 67.716 27.1227 67.5816 27.0555C67.4471 26.9831 67.2895 26.947 67.1083 26.947C66.9379 26.947 66.7852 26.9831 66.6508 27.0555C66.5163 27.1279 66.4001 27.221 66.3017 27.3347C66.2085 27.4485 66.1362 27.5778 66.0844 27.7226C66.0382 27.8674 66.015 28.0122 66.015 28.1569C66.015 28.3018 66.0382 28.4466 66.0844 28.5913C66.1362 28.731 66.2085 28.8576 66.3017 28.9714C66.4001 29.0852 66.5163 29.1782 66.6508 29.2506C66.7852 29.3178 66.9379 29.3514 67.1083 29.3514C67.2895 29.3514 67.4471 29.3153 67.5816 29.2428C67.716 29.1704 67.8274 29.0775 67.915 28.9637C68.0032 28.8499 68.0677 28.7206 68.1091 28.5758C68.1559 28.4311 68.179 28.2863 68.179 28.1414Z" fill="#CFCFCF"/>
<path d="M69.3255 26.2953H70.3573L71.3965 29.0023H71.4122L72.3351 26.2953H73.3048L71.5442 30.8173C71.4768 30.9879 71.4043 31.1379 71.327 31.2672C71.2492 31.4017 71.1561 31.5128 71.0478 31.6007C70.939 31.6938 70.8099 31.7636 70.6597 31.8101C70.5149 31.8567 70.3391 31.8799 70.1322 31.8799C70.0549 31.8799 69.9747 31.8748 69.8919 31.8644C69.8141 31.8593 69.7343 31.8464 69.6516 31.8257L69.7289 31.0189C69.7909 31.0397 69.8506 31.0526 69.9071 31.0578C69.9693 31.0681 70.0263 31.0733 70.0781 31.0733C70.176 31.0733 70.2588 31.0603 70.3263 31.0345C70.3933 31.0138 70.4504 30.9776 70.4967 30.9259C70.5435 30.8794 70.5849 30.8199 70.6208 30.7476C70.6572 30.6751 70.6961 30.5898 70.7375 30.4915L70.9237 30.0184L69.3255 26.2953Z" fill="#CFCFCF"/>
<path fill-rule="evenodd" clip-rule="evenodd" d="M90.3789 25.0723C90.4911 24.8248 90.4534 24.5196 90.2598 24.3051C89.9958 24.0163 89.5502 23.9956 89.2614 24.2597C89.1912 24.3257 89.1338 24.3999 89.0969 24.4824L87.6898 27.6628L86.2956 24.5154C86.2913 24.503 86.2828 24.4907 86.2793 24.4783L86.2708 24.4618C86.2339 24.3875 86.1842 24.3215 86.118 24.2638C85.8294 23.9998 85.3837 24.0204 85.1197 24.3092C84.9384 24.5113 84.8932 24.7918 84.9798 25.0311L84.9838 25.0434C84.9922 25.0641 85 25.0846 85.0083 25.1012L87.042 29.7005C87.1123 29.849 87.2322 29.9727 87.3925 30.047C87.743 30.2037 88.1646 30.0511 88.3248 29.7005L90.3669 25.0846V25.0805L90.3789 25.0723Z" fill="#CFCFCF"/>
<path fill-rule="evenodd" clip-rule="evenodd" d="M92.4209 24.7798C92.4209 24.392 92.1081 24.0827 91.7242 24.0827C91.336 24.0827 91.0267 24.3962 91.0267 24.7798V29.408C91.0267 29.7957 91.3412 30.1051 91.7242 30.1051C92.1124 30.1051 92.4209 29.7916 92.4209 29.408V24.7798Z" fill="#CFCFCF"/>
<path d="M99.0047 27.0939C99.0047 25.4315 97.6558 24.0827 95.9934 24.0827C94.331 24.0827 92.9822 25.4315 92.9822 27.0939C92.9822 28.7563 94.331 30.1051 95.9934 30.1051C96.4639 30.1051 96.9095 29.9979 97.3054 29.8041L97.3422 28.9997L96.7809 28.5995L96.7072 28.5418C96.493 28.649 96.2496 28.7068 95.9934 28.7068C95.1022 28.7068 94.3807 27.9849 94.3807 27.0939C94.3807 26.2029 95.1022 25.481 95.9934 25.481C96.8846 25.481 97.6061 26.2029 97.6061 27.0939C97.6061 27.098 97.6061 27.1063 97.6061 27.1104V29.3998V29.408C97.6061 29.4823 97.619 29.5524 97.6387 29.6184C97.7304 29.903 97.9943 30.1093 98.3071 30.1093C98.6953 30.1093 99.0089 29.7957 99.0089 29.408C99.0089 29.4039 99.0089 29.4039 99.0089 29.3998L99.0047 27.0939Z" fill="#CFCFCF"/>
<path d="M83.8042 27.1562C83.3132 27.6471 82.5168 27.6471 82.0263 27.1521C81.9145 27.0366 81.8283 26.9087 81.7663 26.7685C81.6506 27.1356 81.4486 27.478 81.16 27.7667C80.1987 28.732 78.6356 28.732 77.6742 27.7667C77.196 27.2882 76.9567 26.6571 76.9522 26.0301C76.9483 25.7579 76.8454 25.4856 76.639 25.2753C76.2184 24.8545 75.5417 24.8545 75.1211 25.2753C74.9148 25.4814 74.8113 25.7537 74.8074 26.026H74.799C74.8035 27.2058 75.2531 28.3814 76.148 29.2805C77.0763 30.2129 79.3821 32.4939 79.3821 32.4939C79.3821 32.4939 81.7953 30.1592 82.6695 29.2805C83.3087 28.6371 83.7214 27.8533 83.9071 27.0284C83.8781 27.0737 83.8411 27.115 83.8042 27.1562Z" fill="#CFCFCF"/>
<path d="M84.0224 25.9668C84.014 24.7953 83.5604 23.6279 82.6734 22.7327C80.8709 20.922 77.9504 20.922 76.1519 22.7327C75.4959 23.3927 75.0754 24.2013 74.8981 25.051C74.935 24.9973 74.9764 24.9479 75.0256 24.9025C75.5166 24.4075 76.3124 24.4075 76.8034 24.9025C76.9148 25.0139 77.0015 25.1459 77.0635 25.282C77.1788 24.9108 77.3812 24.5601 77.6737 24.2672C78.635 23.302 80.1982 23.302 81.1596 24.2672C81.6298 24.7375 81.8692 25.3521 81.8815 25.9668C81.8815 25.9874 81.8815 26.0039 81.8815 26.0245C81.8815 26.0369 81.8815 26.0533 81.8815 26.0658C81.8939 26.3256 81.9968 26.5814 82.1908 26.7794C82.6074 27.2001 83.2881 27.2043 83.7087 26.7835C83.9066 26.5855 84.01 26.3339 84.0224 26.0781C84.0224 26.0616 84.0224 26.0492 84.0224 26.0328C84.0263 26.008 84.0263 25.9874 84.0224 25.9668Z" fill="#CFCFCF"/>
</svg>
