<svg width="24" height="24" viewBox="0 0 24 24" fill="none" xmlns="http://www.w3.org/2000/svg">
<path fill-rule="evenodd" clip-rule="evenodd" d="M13.1553 8.09467C13.4482 8.38756 13.4482 8.86244 13.1553 9.15533L11.4357 10.875H19.625C20.0392 10.875 20.375 11.2108 20.375 11.625C20.375 12.0392 20.0392 12.375 19.625 12.375H11.4357L13.1553 14.0947C13.4482 14.3876 13.4482 14.8624 13.1553 15.1553C12.8624 15.4482 12.3876 15.4482 12.0947 15.1553L9.09467 12.1553C8.80178 11.8624 8.80178 11.3876 9.09467 11.0947L12.0947 8.09467C12.3876 7.80178 12.8624 7.80178 13.1553 8.09467Z" fill="#5A6AF2"/>
<path d="M11.625 5.87745C11.625 6.3254 11.3508 6.71725 11.034 7.03401L8.03401 10.034C7.15533 10.9127 7.15533 12.3373 8.03401 13.216L11.034 16.216C11.3508 16.5327 11.625 16.9246 11.625 17.3726V19.625C7.20672 19.625 3.625 16.0433 3.625 11.625C3.625 7.20672 7.20672 3.625 11.625 3.625V5.87745Z" fill="#5A6AF2"/>
</svg>
